M48
;GenerationSoftware,Autodesk,EAGLE,9.6.2*%
;CreationDate,2022-05-26T18:43:13Z*%
FMAT,2
ICI,OFF
METRIC,TZ,000.000
T6C0.300
T5C0.400
T4C0.650
T3C0.950
T2C1.016
T1C3.302
%
G90
M71
T1
X51308Y66548
X89408Y66548
X2540Y60935
X40640Y60935
X2540Y2540
X40640Y2540
X2540Y124943
X40640Y124943
X2540Y66548
X40640Y66548
X51308Y60935
X89408Y60935
X51308Y2540
X89408Y2540
X51308Y124943
X89408Y124943
T2
X85598Y126238
X21590Y1270
X29210Y65278
X31750Y65278
X34290Y65278
X36830Y65278
X24130Y126238
X26670Y126238
X29210Y126238
X31750Y126238
X1270Y39370
X34290Y126238
X36830Y126238
X50038Y88138
X50038Y90678
X50038Y93218
X50038Y95758
X50038Y98298
X50038Y100838
X50038Y103378
X83058Y126238
X70358Y126238
X1270Y24130
X1270Y26670
X1270Y29210
X1270Y31750
X1270Y34290
X1270Y36830
X67818Y126238
X65278Y126238
X62738Y126238
X62738Y65278
X65278Y65278
X67818Y65278
X70358Y65278
X21590Y62230
X19050Y62230
X16510Y62230
X13970Y62230
X13970Y1270
X16510Y1270
X19050Y1270
X24130Y1270
X26670Y1270
X29210Y1270
X31750Y1270
X34290Y1270
X36830Y1270
X24130Y62230
X26670Y62230
X29210Y62230
X31750Y62230
X34290Y62230
X36830Y62230
X72898Y65278
X75438Y65278
X77978Y65278
X80518Y65278
X50038Y24130
X50038Y26670
X50038Y29210
X50038Y31750
X50038Y34290
X50038Y36830
X50038Y39370
X83058Y65278
X85598Y65278
X72898Y126238
X75438Y126238
X77978Y126238
X80518Y126238
X70358Y62230
X67818Y62230
X65278Y62230
X62738Y62230
X62738Y1270
X65278Y1270
X67818Y1270
X70358Y1270
X72898Y1270
X75438Y1270
X77978Y1270
X80518Y1270
X83058Y1270
X85598Y1270
X72898Y62230
X75438Y62230
X77978Y62230
X80518Y62230
X83058Y62230
X85598Y62230
X1270Y88138
X1270Y90678
X1270Y93218
X1270Y95758
X1270Y98298
X1270Y100838
X1270Y103378
X21590Y126238
X19050Y126238
X16510Y126238
X13970Y126238
X13970Y65278
X16510Y65278
X19050Y65278
X21590Y65278
X24130Y65278
X26670Y65278
T3
X12700Y34290
X61468Y34290
X35560Y20320
X84328Y20320
X61468Y98298
X35560Y84328
X12700Y98298
X84328Y84328
T4
X4905Y19400
X4905Y13620
X4905Y49880
X4905Y44100
X53673Y19400
X53673Y13620
X53673Y49880
X53673Y44100
X4905Y77628
X4905Y113888
X4905Y108108
X53673Y83408
X53673Y77628
X53673Y113888
X53673Y108108
X4905Y83408
T5
X5435Y42672
X5435Y51308
X50023Y20828
X50023Y12192
X1255Y42672
X54203Y20828
X50023Y51308
X50023Y42672
X54203Y42672
X54203Y51308
X1255Y20828
X54203Y12192
X1255Y12192
X5435Y12192
X5435Y20828
X50023Y84836
X50023Y76200
X54203Y76200
X54203Y84836
X5435Y84836
X1255Y84836
X1255Y76200
X5435Y76200
X1255Y115316
X1255Y106680
X5435Y106680
X50023Y115316
X50023Y106680
X5435Y115316
X54203Y115316
X1255Y51308
X54203Y106680
T6
X5080Y36830
X10160Y10795
X5080Y40640
X10795Y31750
X10795Y34290
X10732Y36830
X10795Y29210
X7556Y42926
X10160Y39370
X38100Y53340
X38100Y54610
X4826Y14732
X4826Y18288
X3175Y7620
X40640Y53340
X3175Y57023
X40640Y54610
X4953Y45085
X4953Y48895
X8001Y25273
X10160Y25400
X67818Y56642
X58928Y55880
X58166Y59690
X53848Y25400
X59563Y24130
X57404Y55880
X63119Y47752
X64389Y47752
X61468Y54765
X90043Y43180
X86106Y39370
X85979Y41910
X69977Y10160
X75438Y10160
X68644Y38672
X57150Y3937
X71120Y10160
X74168Y31750
X76708Y33020
X76708Y30480
X74168Y30480
X74168Y33020
X73851Y34290
X73851Y35433
X76073Y35433
X76073Y34290
X74168Y29210
X76581Y28067
X74930Y28067
X78740Y28194
X79248Y30480
X81026Y30480
X79248Y33020
X82677Y29591
X84074Y36195
X89408Y27940
X86868Y27940
X85598Y29210
X84138Y29591
X89408Y35560
X86868Y35560
X85598Y34290
X73914Y38672
X76200Y38672
X79248Y36132
X83058Y38100
X81788Y40640
X79248Y40640
X76708Y40640
X74168Y40640
X72263Y34290
X72136Y40640
X72263Y31750
X72009Y28575
X80010Y26670
X65151Y23177
X69533Y23177
X73724Y23177
X77915Y23177
X77978Y19050
X73660Y19050
X69533Y19050
X64008Y19050
X77915Y14922
X73724Y14922
X69469Y14922
X65278Y14668
X80391Y19050
X68644Y10160
X74232Y10160
X78804Y10160
X64452Y27940
X66675Y27940
X79248Y34608
X82741Y34925
X82741Y33274
X84201Y26797
X59182Y59690
X60198Y55880
X56832Y27940
X56832Y30480
X56832Y33020
X56832Y35560
X60388Y46228
X60388Y44577
X62166Y47752
X63563Y54864
X76137Y47752
X85598Y48260
X85598Y46990
X88138Y44740
X90297Y41275
X90297Y39370
X80518Y49530
X56197Y3810
X55118Y5080
X68644Y7620
X73660Y7620
X51991Y10351
X51308Y17780
X51308Y15240
X51308Y45720
X55753Y43751
X55816Y50228
X55753Y19812
X55753Y13271
X60198Y15367
X60198Y18288
X69533Y31686
X51848Y53415
X50038Y5080
X64008Y59690
X74168Y59690
X77978Y55880
X80518Y55880
X64008Y45720
X69088Y45720
X71628Y45720
X76708Y45720
X76708Y43180
X71628Y43180
X69088Y43180
X62738Y43180
X62738Y39370
X64008Y39370
X69088Y40640
X89408Y21590
X85598Y19050
X89408Y16510
X89408Y12700
X89408Y8890
X84328Y10160
X81788Y3810
X74168Y3810
X57658Y1270
X62738Y8890
X55118Y8890
X53848Y57150
X53848Y53340
X57658Y62230
X77978Y50800
X57658Y39370
X66548Y19050
X72390Y7620
X68199Y54737
X56134Y59690
X59182Y3973
X71628Y5136
X61468Y50800
X59436Y50800
X90678Y49530
X90678Y50800
X52550Y55816
X66485Y31623
X69215Y55273
X57150Y59690
X58166Y3937
X69152Y5178
X71715Y35560
X82995Y20130
X84328Y34925
X67310Y31623
X51336Y55816
X77978Y6350
X52514Y7112
X76391Y6350
X51371Y7112
X77978Y41910
X73279Y10160
X63436Y31623
X64516Y30861
X76708Y59690
X80518Y6731
X79248Y6350
X57443Y9525
X56388Y10033
X84328Y4821
X54900Y33020
X55816Y25463
X58166Y10795
X53848Y36830
X58928Y10795
X53848Y40640
X59563Y31750
X59563Y34290
X59499Y36830
X59563Y29210
X56324Y42926
X58928Y39370
X86868Y53340
X86868Y54610
X53594Y14732
X53594Y18288
X51943Y7620
X89408Y53340
X51943Y57023
X89408Y54610
X53721Y45085
X53721Y48895
X56769Y25273
X58928Y25400
X19050Y120650
X10160Y119888
X9398Y123698
X5080Y89408
X10795Y88138
X8636Y119888
X14351Y111760
X15621Y111760
X12700Y118773
X41275Y107188
X37338Y103378
X37211Y105918
X21209Y74168
X26670Y74168
X19876Y102679
X8382Y67945
X22352Y74168
X25400Y95758
X27940Y97028
X27940Y94488
X25400Y94488
X25400Y97028
X25082Y98298
X25082Y99441
X27305Y99441
X27305Y98298
X25400Y93218
X27813Y92075
X26162Y92075
X29972Y92202
X30480Y94488
X32258Y94488
X30480Y97028
X33909Y93599
X35306Y100203
X40640Y91948
X38100Y91948
X36830Y93218
X35370Y93599
X40640Y99568
X38100Y99568
X36830Y98298
X25146Y102679
X27432Y102679
X30480Y100139
X34290Y102108
X33020Y104648
X30480Y104648
X27940Y104648
X25400Y104648
X23495Y98298
X23368Y104648
X23495Y95758
X23241Y92583
X31242Y90678
X16383Y87186
X20765Y87186
X24955Y87186
X29146Y87186
X29210Y83058
X24892Y83058
X20765Y83058
X15240Y83058
X29146Y78931
X24955Y78931
X20701Y78931
X16510Y78677
X31623Y83058
X19876Y74168
X25463Y74168
X30035Y74168
X15684Y91948
X17907Y91948
X30480Y98615
X33973Y98933
X33973Y97282
X35433Y90805
X10414Y123698
X11430Y119888
X8064Y91948
X8064Y94488
X8064Y97028
X8064Y99568
X11620Y110236
X11620Y108585
X13398Y111760
X14795Y118872
X27368Y111760
X36830Y112268
X36830Y110998
X13970Y39370
X41529Y105283
X41529Y103378
X31750Y113538
X7429Y67818
X6350Y69088
X19876Y71628
X24892Y71628
X3223Y74359
X2540Y81788
X2540Y79248
X2540Y109728
X6985Y107759
X7048Y114236
X6985Y83820
X6985Y77280
X11430Y79375
X11430Y82296
X20765Y95694
X3080Y117423
X1270Y69088
X15240Y123698
X25400Y123698
X29210Y119888
X31750Y119888
X15240Y109728
X20320Y109728
X22860Y109728
X27940Y109728
X27940Y107188
X22860Y107188
X20320Y107188
X13970Y107188
X13970Y103378
X15240Y103378
X20320Y104648
X40640Y85598
X36830Y83058
X40640Y80518
X40640Y76708
X40640Y72898
X35560Y74168
X33020Y67818
X25400Y67818
X8890Y65278
X13970Y72898
X6350Y72898
X5080Y121158
X5080Y117348
X8890Y126238
X29210Y114808
X8890Y103378
X17780Y83058
X23622Y71628
X19431Y118745
X7366Y123698
X10414Y67981
X22860Y69144
X12700Y114808
X10668Y114808
X41910Y113538
X41910Y114808
X3782Y119824
X17717Y95631
X20447Y119281
X8382Y123698
X9398Y67945
X20384Y69186
X22946Y99568
X34227Y84138
X35560Y98933
X18542Y95631
X2568Y119824
X29210Y70358
X3746Y71120
X27622Y70358
X2604Y71120
X29210Y105918
X24511Y74168
X14668Y95631
X15748Y94869
X27940Y123698
X31750Y70739
X30480Y70358
X8675Y73533
X7620Y74041
X35560Y68829
X6132Y97028
X7048Y89471
X9398Y74803
X5080Y100838
X10160Y74803
X5080Y104648
X10795Y95758
X10795Y98298
X10732Y100838
X10795Y93218
X7556Y106934
X10160Y103378
X38100Y117348
X38100Y118618
X4826Y78740
X4826Y82296
X3175Y71628
X40640Y117348
X3175Y121031
X40640Y118618
X4953Y109093
X4953Y112903
X8001Y89281
X10160Y89408
X67818Y120650
X58928Y119888
X58166Y123698
X53848Y89408
X59563Y88138
X57404Y119888
X63119Y111760
X64389Y111760
X61468Y118773
X90043Y107188
X86106Y103378
X85979Y105918
X69977Y74168
X75438Y74168
X68644Y102679
X57150Y67945
X71120Y74168
X74168Y95758
X76708Y97028
X76708Y94488
X74168Y94488
X74168Y97028
X73851Y98298
X73851Y99441
X76073Y99441
X76073Y98298
X74168Y93218
X76581Y92075
X74930Y92075
X78740Y92202
X79248Y94488
X81026Y94488
X79248Y97028
X82677Y93599
X84074Y100203
X89408Y91948
X86868Y91948
X85598Y93218
X84138Y93599
X89408Y99568
X86868Y99568
X85598Y98298
X73914Y102679
X76200Y102679
X79248Y100139
X83058Y102108
X81788Y104648
X79248Y104648
X76708Y104648
X74168Y104648
X72263Y98298
X72136Y104648
X72263Y95758
X72009Y92583
X80010Y90678
X65151Y87186
X69533Y87186
X73724Y87186
X77915Y87186
X77978Y83058
X73660Y83058
X69533Y83058
X64008Y83058
X77915Y78931
X73724Y78931
X69469Y78931
X65278Y78677
X80391Y83058
X68644Y74168
X74232Y74168
X78804Y74168
X64452Y91948
X66675Y91948
X79248Y98615
X82741Y98933
X82741Y97282
X84201Y90805
X59182Y123698
X60198Y119888
X56832Y91948
X56832Y94488
X56832Y97028
X56832Y99568
X60388Y110236
X60388Y108585
X62166Y111760
X63563Y118872
X76137Y111760
X85598Y112268
X85598Y110998
X88138Y108748
X90297Y105283
X90297Y103378
X80518Y113538
X56197Y67818
X55118Y69088
X68644Y71628
X73660Y71628
X51991Y74359
X51308Y81788
X51308Y79248
X51308Y109728
X55753Y107759
X55816Y114236
X55753Y83820
X55753Y77280
X60198Y79375
X60198Y82296
X69533Y95694
X51848Y117423
X50038Y69088
X64008Y123698
X74168Y123698
X77978Y119888
X80518Y119888
X64008Y109728
X69088Y109728
X71628Y109728
X76708Y109728
X76708Y107188
X71628Y107188
X69088Y107188
X62738Y107188
X62738Y103378
X64008Y103378
X69088Y104648
X89408Y85598
X85598Y83058
X89408Y80518
X89408Y76708
X89408Y72898
X84328Y74168
X81788Y67818
X74168Y67818
X19050Y56642
X62738Y72898
X55118Y72898
X53848Y121158
X53848Y117348
X57658Y126238
X77978Y114808
X57658Y103378
X66548Y83058
X72390Y71628
X68199Y118745
X56134Y123698
X59182Y67981
X71628Y69144
X61468Y114808
X59436Y114808
X90678Y113538
X90678Y114808
X52550Y119824
X66485Y95631
X69215Y119281
X57150Y123698
X58166Y67945
X69152Y69186
X71715Y99568
X82995Y84138
X84328Y98933
X67310Y95631
X51336Y119824
X77978Y70358
X52514Y71120
X76391Y70358
X51371Y71120
X77978Y105918
X73279Y74168
X63436Y95631
X64516Y94869
X76708Y123698
X80518Y70739
X79248Y70358
X57443Y73533
X56388Y74041
X84328Y68829
X54900Y97028
X55816Y89471
X58166Y74803
X53848Y100838
X58928Y74803
X53848Y104648
X59563Y95758
X59563Y98298
X59499Y100838
X59563Y93218
X56324Y106934
X58928Y103378
X86868Y117348
X86868Y118618
X53594Y78740
X53594Y82296
X51943Y71628
X89408Y117348
X51943Y121031
X89408Y118618
X53721Y109093
X53721Y112903
X56769Y89281
X58928Y89408
X10160Y55880
X9398Y59690
X5080Y25400
X10795Y24130
X8636Y55880
X14351Y47752
X15621Y47752
X12700Y54765
X41275Y43180
X37338Y39370
X37211Y41910
X21209Y10160
X26670Y10160
X19876Y38672
X8382Y3937
X22352Y10160
X25400Y31750
X27940Y33020
X27940Y30480
X25400Y30480
X25400Y33020
X25082Y34290
X25082Y35433
X27305Y35433
X27305Y34290
X25400Y29210
X27813Y28067
X26162Y28067
X29972Y28194
X30480Y30480
X32258Y30480
X30480Y33020
X33909Y29591
X35306Y36195
X40640Y27940
X38100Y27940
X36830Y29210
X35370Y29591
X40640Y35560
X38100Y35560
X36830Y34290
X25146Y38672
X27432Y38672
X30480Y36132
X34290Y38100
X33020Y40640
X30480Y40640
X27940Y40640
X25400Y40640
X23495Y34290
X23368Y40640
X23495Y31750
X23241Y28575
X31242Y26670
X16383Y23177
X20765Y23177
X39370Y108748
X24955Y23177
X29146Y23177
X29210Y19050
X24892Y19050
X20765Y19050
X15240Y19050
X29146Y14922
X24955Y14922
X20701Y14922
X16510Y14668
X31623Y19050
X19876Y10160
X25463Y10160
X30035Y10160
X15684Y27940
X17907Y27940
X30480Y34608
X33973Y34925
X33973Y33274
X35433Y26797
X10414Y59690
X11430Y55880
X8064Y27940
X8064Y30480
X8064Y33020
X8064Y35560
X11620Y46228
X11620Y44577
X13398Y47752
X14795Y54864
X27368Y47752
X36830Y48260
X36830Y46990
X39370Y44740
X41529Y41275
X41529Y39370
X31750Y49530
X7429Y3810
X6350Y5080
X19876Y7620
X24892Y7620
X3223Y10351
X2540Y17780
X2540Y15240
X2540Y45720
X6985Y43751
X7048Y50228
X6985Y19812
X6985Y13271
X11430Y15367
X11430Y18288
X20765Y31686
X3080Y53415
X1270Y5080
X15240Y59690
X25400Y59690
X29210Y55880
X31750Y55880
X15240Y45720
X20320Y45720
X22860Y45720
X27940Y45720
X27940Y43180
X22860Y43180
X20320Y43180
X13970Y43180
X15240Y39370
X20320Y40640
X40640Y21590
X36830Y19050
X40640Y16510
X40640Y12700
X40640Y8890
X35560Y10160
X33020Y3810
X25400Y3810
X8890Y1270
X13970Y8890
X6350Y8890
X5080Y57150
X5080Y53340
X8890Y62230
X29210Y50800
X8890Y39370
X17780Y19050
X23622Y7620
X19431Y54737
X7366Y59690
X10414Y3973
X22860Y5136
X12700Y50800
X10668Y50800
X41910Y49530
X41910Y50800
X3782Y55816
X17717Y31623
X20447Y55273
X8382Y59690
X9398Y3937
X20384Y5178
X22946Y35560
X34227Y20130
X35560Y34925
X18542Y31623
X2568Y55816
X29210Y6350
X3746Y7112
X27622Y6350
X2604Y7112
X29210Y41910
X24511Y10160
X14668Y31623
X15748Y30861
X27940Y59690
X31750Y6731
X30480Y6350
X8675Y9525
X7620Y10033
X35560Y4821
X6132Y33020
X7048Y25463
X9398Y10795
X57658Y65278
M30